<svg fill="#000000" viewBox="0 0 48 48" id="bedroom-7" data-name="Flat Line" xmlns="http://www.w3.org/2000/svg" class="icon flat-line" width="48" height="48"><g id="SVGRepo_bgCarrier" stroke-width="0"/><g id="SVGRepo_tracerCarrier" stroke-linecap="round" stroke-linejoin="round"/><g id="SVGRepo_iconCarrier"><path id="secondary" points="19 9 5 9 3 15 21 15 19 9" style="fill: #2ca9bc; stroke-width: 2;" d="M38 18L10 18L6 30L42 30L38 18Z"/><path id="primary" d="M10 38v4m28 -4v4M10 8v10h28V8a2 2 0 0 0 -2 -2H12a2 2 0 0 0 -2 2m32 28v-6H6v6a2 2 0 0 0 2 2h32a2 2 0 0 0 2 -2m-4 -18H10l-4 12h36Z" style="fill: none; stroke: #000000; stroke-linecap: round; stroke-linejoin: round; stroke-width: 2;"/></g></svg>