<svg fill="#000000" height="48px" width="48px" version="1.1" id="Layer_1" xmlns="http://www.w3.org/2000/svg" xmlns:xlink="http://www.w3.org/1999/xlink" viewBox="0 0 122.88 122.88" xml:space="preserve"><g id="SVGRepo_bgCarrier" stroke-width="0"/><g id="SVGRepo_tracerCarrier" stroke-linecap="round" stroke-linejoin="round"/><g id="SVGRepo_iconCarrier"><g><g><path d="M67.835 96.277H63.425v-3.984c0 -2.069 -1.683 -3.752 -3.752 -3.752h-7.231c-2.069 0 -3.752 1.683 -3.752 3.752v3.984h-4.41c-1.572 0 -2.845 1.274 -2.845 2.845v16.03c0 1.572 1.274 2.845 2.845 2.845h23.556c1.572 0 2.845 -1.274 2.845 -2.845v-16.03c0 -1.572 -1.274 -2.845 -2.846 -2.845m-8.206 0h-7.145v-3.941h7.145z"/></g></g><g><g><path d="m69.435 33.731 -4.991 -1.529a1.811 1.811 0 0 0 -2.262 1.201l-1.53 4.995a8.64 8.64 0 0 1 0.971 -0.057c2.928 0 5.562 1.46 7.146 3.745l1.867 -6.094a1.811 1.811 0 0 0 -1.201 -2.262"/></g></g><g><g><path d="M103.091 19.107c-1.932 -1.14 -3.723 -2.56 -8.382 -2.56 -4.567 0 -6.399 1.39 -8.26 2.452 -0.342 4.881 3.523 8.932 8.317 8.932 4.764 0 8.601 -3.998 8.325 -8.824"/></g></g><g><g><path d="M115.056 40.065c-0.027 -5.225 -4.299 -9.475 -9.523 -9.475h-4.125l-4.988 13.032 1.176 -5.541a1.656 1.656 0 0 0 -0.169 -1.143l-1.615 -2.938 1.436 -2.611a0.585 0.585 0 0 0 -0.512 -0.866h-3.941a0.584 0.584 0 0 0 -0.512 0.866l1.436 2.611 -1.621 2.948c-0.378 0.688 -0.268 1.016 0.855 6.673 -2.521 -6.467 -1.538 -4.026 -4.937 -13.032h-4.086c-5.225 0 -9.497 4.251 -9.523 9.475l-0.071 14.095h8.049l0.071 -14.054a0.777 0.777 0 0 1 1.554 0.004v14.05h21.315v-14.059a0.842 0.842 0 0 1 1.684 0v0.005l0.071 14.055h8.049zm-20.342 10.723c-0.777 0 -1.432 -0.631 -1.432 -1.432 0 -0.798 0.652 -1.432 1.432 -1.432 0.754 0 1.432 0.62 1.432 1.432 0 0.817 -0.682 1.432 -1.432 1.432"/></g></g><g><g><path d="M118.692 59.185H38.142v8.376H118.692c2.313 0 4.188 -1.875 4.188 -4.188 0 -2.313 -1.875 -4.188 -4.188 -4.188"/></g></g><g><g><path d="M65.921 46.255c-0.436 -2.375 -2.716 -3.949 -5.093 -3.512l-12.649 2.323 -6.936 -12.224a7.846 7.846 0 0 0 -6.811 -3.966H10.512c-5.679 0 -10.323 4.62 -10.351 10.299L0 71.309c-0.012 2.416 1.936 4.384 4.352 4.396h0.023c2.405 0 4.362 -1.944 4.374 -4.352l0.162 -32.135v0a0.868 0.868 0 0 1 1.736 0.005l0.002 73.526c0 2.899 2.35 5.249 5.249 5.249s5.249 -2.35 5.249 -5.249V70.793h2.266v41.956c0 2.899 2.35 5.249 5.249 5.249s5.249 -2.35 5.249 -5.249c0 -68.927 -0.095 -30.485 -0.096 -74.304a0.219 0.219 0 0 1 0.409 -0.109l7.883 13.752a4.375 4.375 0 0 0 4.595 2.144l15.708 -2.885c2.376 -0.437 3.948 -2.716 3.512 -5.092"/></g></g><g><g><path d="M22.277 7.854c-5.007 0 -9.066 4.059 -9.066 9.066 0 5.003 4.063 9.066 9.066 9.066 5.012 0 9.066 -4.063 9.066 -9.066 0 -4.978 -4.03 -9.066 -9.066 -9.066"/></g></g><g><g><path d="M101.631 4.882h-13.731a1.106 1.106 0 0 0 -1.107 1.107v9.171c1.904 -1.086 4.742 -1.776 7.915 -1.776 3.236 0 6.125 0.718 8.029 1.842V5.989a1.106 1.106 0 0 0 -1.107 -1.107"/></g></g></g></svg>