<svg version="1.1" id="Layer_1" xmlns="http://www.w3.org/2000/svg" xmlns:xlink="http://www.w3.org/1999/xlink" viewBox="0 0 48 48" xml:space="preserve" fill="#000000" width="48" height="48"><g id="SVGRepo_bgCarrier" stroke-width="0"/><g id="SVGRepo_tracerCarrier" stroke-linecap="round" stroke-linejoin="round"/><g id="SVGRepo_iconCarrier"><path style="fill:#507C5C;" d="M37.372 30.433c-0.428 -0.296 -1.196 -0.603 -2.287 -0.913v-3.209c0.448 0.074 0.788 0.29 1.012 0.645 0.153 0.249 0.247 0.546 0.28 0.883a0.283 0.283 0 0 0 0.281 0.255h1.332a0.283 0.283 0 0 0 0.282 -0.29c-0.024 -0.934 -0.339 -1.702 -0.937 -2.283 -0.537 -0.522 -1.293 -0.841 -2.25 -0.949v-0.746a0.283 0.283 0 0 0 -0.282 -0.282h-0.728a0.283 0.283 0 0 0 -0.282 0.282v0.747c-0.97 0.066 -1.749 0.412 -2.319 1.032 -0.614 0.669 -0.926 1.438 -0.926 2.287 0 0.95 0.298 1.706 0.883 2.245 0.521 0.485 1.314 0.846 2.362 1.073v3.625c-0.602 -0.105 -1.011 -0.366 -1.245 -0.791 -0.109 -0.199 -0.25 -0.606 -0.301 -1.41a0.282 0.282 0 0 0 -0.282 -0.264h-1.345a0.283 0.283 0 0 0 -0.282 0.282c0 0.943 0.152 1.672 0.464 2.226 0.548 0.984 1.553 1.556 2.991 1.702v1.083a0.283 0.283 0 0 0 0.282 0.282h0.728a0.283 0.283 0 0 0 0.282 -0.282v-1.093c0.841 -0.116 1.509 -0.331 1.987 -0.638 0.972 -0.63 1.461 -1.685 1.453 -3.134 0 -1.038 -0.389 -1.833 -1.154 -2.363m-2.287 1.105c0.507 0.163 0.775 0.306 0.914 0.405 0.395 0.28 0.587 0.68 0.587 1.224 0 0.354 -0.074 0.66 -0.226 0.935 -0.244 0.443 -0.662 0.7 -1.275 0.781zm-2.598 -3.733c0 -0.358 0.123 -0.698 0.374 -1.038 0.189 -0.252 0.501 -0.41 0.931 -0.472v2.932c-0.364 -0.107 -0.66 -0.256 -0.895 -0.451 -0.276 -0.234 -0.411 -0.552 -0.411 -0.971"/><path x="15.066" y="53.649" style="fill:#CFF09E;" width="350.551" height="83.227" d="M1.412 5.03H34.277V12.832H1.412V5.03z"/><path style="fill:#507C5C;" d="M34.277 14.245H1.412C0.632 14.245 0 13.613 0 12.833V5.03c0 -0.78 0.632 -1.412 1.412 -1.412h32.865c0.78 0 1.412 0.633 1.412 1.412v7.803c0 0.78 -0.632 1.413 -1.412 1.413M2.825 11.42h30.04V6.442H2.825z"/><path style="fill:#CFF09E;" d="M22.362 32.25H1.412v7.803h25.123c-2.264 -1.936 -3.807 -4.689 -4.174 -7.803"/><path style="fill:#507C5C;" d="M46.588 29.402c-0.78 0 -1.412 0.633 -1.412 1.412 0 5.924 -4.82 10.744 -10.744 10.744 -2.757 0 -5.274 -1.045 -7.179 -2.758q-0.032 -0.028 -0.064 -0.057a10.781 10.781 0 0 1 -0.326 -0.311q-0.019 -0.018 -0.037 -0.037a10.594 10.594 0 0 1 -0.338 -0.355l-0.008 -0.009c-0.923 -1.016 -1.655 -2.209 -2.137 -3.522 -0.029 -0.078 -0.054 -0.158 -0.081 -0.237 -0.026 -0.078 -0.054 -0.155 -0.079 -0.233 -0.044 -0.141 -0.084 -0.282 -0.123 -0.425 -0.005 -0.018 -0.01 -0.035 -0.015 -0.053q-0.06 -0.229 -0.11 -0.462 -0.003 -0.012 -0.006 -0.024a10.406 10.406 0 0 1 -0.091 -0.478q-0.001 -0.008 -0.003 -0.016a10.969 10.969 0 0 1 -0.069 -0.485c-0.05 -0.421 -0.079 -0.848 -0.079 -1.282 0 -5.924 4.82 -10.744 10.744 -10.744 2.737 0 5.343 1.029 7.34 2.898 0.569 0.533 1.463 0.503 1.996 -0.066 0.533 -0.57 0.504 -1.463 -0.066 -1.996 -2.505 -2.345 -5.771 -3.661 -9.201 -3.678H1.412C0.632 17.227 0 17.86 0 18.64v7.803c0 0.78 0.632 1.412 1.412 1.412h14.434c0.78 0 1.412 -0.633 1.412 -1.412s-0.632 -1.412 -1.412 -1.412H2.825v-4.978h23.352c-3.229 2.483 -5.315 6.383 -5.315 10.762l0 0.024H1.412C0.632 30.838 0 31.47 0 32.25v7.803c0 0.78 0.632 1.412 1.412 1.412h24.622c2.311 1.826 5.229 2.917 8.396 2.917 7.482 0 13.569 -6.087 13.569 -13.569 0 -0.78 -0.632 -1.412 -1.412 -1.412M2.825 38.641v-4.978h18.339q0.108 0.505 0.254 0.996 0.002 0.005 0.003 0.011 0.043 0.144 0.088 0.286 0.014 0.043 0.028 0.086 0.033 0.102 0.068 0.203 0.028 0.081 0.057 0.162 0.022 0.061 0.044 0.121 0.044 0.118 0.09 0.235l0.016 0.041a13.491 13.491 0 0 0 1.535 2.837z"/></g></svg>