<svg viewBox="0 0 48 48" fill="none" xmlns="http://www.w3.org/2000/svg" width="48" height="48"><g id="SVGRepo_bgCarrier" stroke-width="0"/><g id="SVGRepo_tracerCarrier" stroke-linecap="round" stroke-linejoin="round"/><g id="SVGRepo_iconCarrier"><path width="40" height="40" rx="8" fill="#000000" fill-opacity="0.4" d="M9.6 0H38.4A9.6 9.6 0 0 1 48 9.6V38.4A9.6 9.6 0 0 1 38.4 48H9.6A9.6 9.6 0 0 1 0 38.4V9.6A9.6 9.6 0 0 1 9.6 0z"/><path fill-rule="evenodd" clip-rule="evenodd" d="M20.08 9.44h7.841c1.458 0 2.705 0.936 3.168 2.239H34.08a2.24 2.24 0 0 1 2.237 2.129l0.004 0.112v22.4a2.24 2.24 0 0 1 -2.129 2.237l-0.112 0.002H13.92a2.239 2.239 0 0 1 -2.237 -2.128l-0.004 -0.112V13.92a2.24 2.24 0 0 1 2.129 -2.237l0.112 -0.004h2.993a3.372 3.372 0 0 1 3.168 -2.239m-1.116 3.434a1.2 1.2 0 0 0 0 -0.149 1.128 1.128 0 0 1 1.116 -1.046h7.841a1.128 1.128 0 0 1 1.12 1.121 1.128 1.128 0 0 1 -1.12 1.12h-7.841a1.128 1.128 0 0 1 -1.116 -1.045" fill="white"/><path d="M28.577 21.76a1.12 1.12 0 1 1 1.584 1.584l-6.488 6.488a1.12 1.12 0 0 1 -1.584 0l-3.689 -3.689a1.12 1.12 0 0 1 1.584 -1.584l2.897 2.896z" fill="#B5B5B5"/></g></svg>